<?xml version="1.0" encoding="UTF-8" standalone="no"?>
<svg
   xmlns:dc="http://purl.org/dc/elements/1.1/"
   xmlns:cc="http://creativecommons.org/ns#"
   xmlns:rdf="http://www.w3.org/1999/02/22-rdf-syntax-ns#"
   xmlns:svg="http://www.w3.org/2000/svg"
   xmlns="http://www.w3.org/2000/svg"
   xmlns:sodipodi="http://sodipodi.sourceforge.net/DTD/sodipodi-0.dtd"
   xmlns:inkscape="http://www.inkscape.org/namespaces/inkscape"
   role="img"
   viewBox="0 0 24 24"
   version="1.1"
   id="svg849"
   sodipodi:docname="instagram.svg"
   inkscape:version="1.0.1 (c497b03c, 2020-09-10)">
  <metadata
     id="metadata855">
    <rdf:RDF>
      <cc:Work
         rdf:about="">
        <dc:format>image/svg+xml</dc:format>
        <dc:type
           rdf:resource="http://purl.org/dc/dcmitype/StillImage" />
      </cc:Work>
    </rdf:RDF>
  </metadata>
  <defs
     id="defs853" />
  <sodipodi:namedview
     pagecolor="#ffffff"
     bordercolor="#666666"
     borderopacity="1"
     objecttolerance="10"
     gridtolerance="10"
     guidetolerance="10"
     inkscape:pageopacity="0"
     inkscape:pageshadow="2"
     inkscape:window-width="776"
     inkscape:window-height="480"
     id="namedview851"
     showgrid="false"
     inkscape:zoom="4.8525028"
     inkscape:cx="-0.89078783"
     inkscape:cy="12.462021"
     inkscape:window-x="0"
     inkscape:window-y="23"
     inkscape:window-maximized="0"
     inkscape:current-layer="svg849"
     inkscape:document-rotation="0" />
  <title
     id="title845">Instagram icon</title>
  <path
     d="M 12,0 C 8.7400001,0 8.3329999,0.015 7.053,0.072 5.775,0.132 4.905,0.333 4.14,0.63 3.351,0.936 2.6809999,1.347 2.014,2.014 1.347,2.681 0.93499999,3.35 0.63,4.14 0.333,4.905 0.131,5.775 0.072,7.053 0.012,8.333 0,8.74 0,12 c 0,3.26 0.015,3.667 0.072,4.947 0.06,1.277 0.261,2.148 0.558,2.913 0.306,0.788 0.717,1.459 1.384,2.126 0.6669999,0.666 1.3359999,1.079 2.126,1.384 0.7660001,0.296 1.6360001,0.499 2.913,0.558 C 8.3329999,23.988 8.7400001,24 12,24 c 3.26,0 3.667,-0.015 4.947,-0.072 1.277,-0.06 2.148,-0.262 2.913,-0.558 0.788,-0.306 1.459,-0.718 2.126,-1.384 0.666,-0.667 1.079,-1.335 1.384,-2.126 0.296,-0.765 0.499,-1.636 0.558,-2.913 C 23.988,15.667 24,15.26 24,12 24,8.74 23.985,8.333 23.928,7.053 23.868,5.776 23.666,4.904 23.37,4.14 23.064,3.351 22.652,2.681 21.986,2.014 21.319,1.347 20.651,0.935 19.86,0.63 19.095,0.333 18.224,0.131 16.947,0.072 15.667,0.012 15.26,0 12,0 Z m 0,2.16 c 3.203,0 3.585,0.016 4.85,0.071 1.17,0.055 1.805,0.249 2.227,0.415 0.562,0.217 0.96,0.477 1.382,0.896 0.419,0.42 0.679,0.819 0.896,1.381 0.164,0.422 0.36,1.057 0.413,2.227 0.057,1.266 0.07,1.646 0.07,4.85 0,3.204 -0.015,3.585 -0.074,4.85 -0.061,1.17 -0.256,1.805 -0.421,2.227 -0.224,0.562 -0.479,0.96 -0.899,1.382 -0.419,0.419 -0.824,0.679 -1.38,0.896 -0.42,0.164 -1.065,0.36 -2.235,0.413 -1.274,0.057 -1.649,0.07 -4.859,0.07 -3.2110001,0 -3.5860001,-0.015 -4.8589999,-0.074 C 5.94,21.703 5.295,21.508 4.875,21.343 4.3060001,21.119 3.915,20.864 3.4960001,20.444 3.075,20.025 2.8060001,19.62 2.5960001,19.064 2.4310001,18.644 2.237,17.999 2.176,16.829 2.131,15.569 2.115,15.18 2.115,11.985 2.115,8.789 2.131,8.399 2.176,7.124 2.237,5.954 2.4310001,5.31 2.5960001,4.89 2.8060001,4.32 3.075,3.93 3.4960001,3.509 3.915,3.09 4.3060001,2.82 4.875,2.611 5.295,2.445 5.9260001,2.25 7.0960001,2.19 c 1.275,-0.045 1.65,-0.06 4.8589999,-0.06 z m 0,3.678 c -3.405,0 -6.162,2.76 -6.162,6.162 0,3.405 2.76,6.162 6.162,6.162 3.405,0 6.162,-2.76 6.162,-6.162 0,-3.405 -2.76,-6.162 -6.162,-6.162 z M 12,16 C 9.7900001,16 7.9999999,14.21 7.9999999,12 7.9999999,9.79 9.7900001,8 12,8 c 2.21,0 4,1.79 4,4 0,2.21 -1.79,4 -4,4 z M 19.846,5.595 c 0,0.795 -0.646,1.44 -1.44,1.44 -0.795,0 -1.44,-0.646 -1.44,-1.44 0,-0.794 0.646,-1.439 1.44,-1.439 0.793,-10e-4 1.44,0.645 1.44,1.439 z"
     id="path847"
     style="fill:#e4405f;stroke-width:0.999999;fill-opacity:1" />
</svg>
